<?xml version="1.0" encoding="utf-8"?>
<!-- Generator: Adobe Illustrator 16.0.0, SVG Export Plug-In . SVG Version: 6.00 Build 0)  -->
<!DOCTYPE svg PUBLIC "-//W3C//DTD SVG 1.1//EN" "http://www.w3.org/Graphics/SVG/1.1/DTD/svg11.dtd">
<svg version="1.1" id="Layer_1" xmlns="http://www.w3.org/2000/svg" xmlns:xlink="http://www.w3.org/1999/xlink" x="0px" y="0px"
	 width="236px" height="406px" viewBox="0 0 236 406" enable-background="new 0 0 236 406" xml:space="preserve">
<path id="path2992" fill="#038181" d="M116.776,0.712c-17.762,0.458-34.457,11.36-41.188,28.531l-0.969,2.5l-3.312,0.156
	c-11.6,0.561-17.955,2.468-24.219,7.312c-5.911,4.572-7.688,8.727-7.969,18.5l-0.156,4.719l-3.125,0.156
	c-7.31,0.379-12.55,1.93-18.344,5.406C8.136,73.609,1.133,84.538,0.308,94.837c-0.33,4.126-0.33,267.693,0,276.781l0.219,6.219
	l1,2.938c4.165,12.194,12.363,20.635,23.688,24.344c3.47,1.136,4.248,1.258,9.25,1.438c2.578,0.092,42.084,0.14,87.781,0.125
	l83.094-0.031l1.875-0.594c15.46-4.964,24.637-14.411,27.938-28.75c0.437-1.896,0.716-216.333,0.344-260.562l-0.188-24.594
	l-0.625-1.875c-5.411-16.865-17.922-26.81-34.781-27.656l-3.312-0.188l-0.093-6.219c-0.099-7.197-0.123-7.33-2.656-11.219
	c-5.441-8.353-14.364-12.31-29.532-13.094l-3.062-0.156l-0.531-1.531c-4.429-12.35-15.804-23.09-28.969-27.344
	C126.796,1.269,121.75,0.583,116.776,0.712z M117.87,28.743c7.078,0,12.812,5.729,12.812,12.812c0,7.082-5.734,12.844-12.812,12.844
	c-7.083,0-12.844-5.762-12.844-12.844C105.026,34.473,110.787,28.743,117.87,28.743z"/>
</svg>
